<svg width="135" height="13" viewBox="0 0 135 13" fill="none" xmlns="http://www.w3.org/2000/svg">
<path d="M12.8321 0.431954V12H10.9361V4.52796C10.9361 4.22929 10.9521 3.90662 10.9841 3.55995L7.48809 10.128C7.32275 10.4426 7.06942 10.6 6.72809 10.6H6.42409C6.08275 10.6 5.82942 10.4426 5.66409 10.128L2.12809 3.53595C2.14409 3.71195 2.15742 3.88529 2.16809 4.05595C2.17875 4.22662 2.18409 4.38396 2.18409 4.52796V12H0.288086V0.431954H1.91209C2.00809 0.431954 2.09075 0.434621 2.16009 0.439955C2.22942 0.445288 2.29075 0.458621 2.34409 0.479955C2.40275 0.501288 2.45342 0.535954 2.49609 0.583955C2.54409 0.631955 2.58942 0.695954 2.63209 0.775954L6.09609 7.19995C6.18675 7.37062 6.26942 7.54662 6.34409 7.72795C6.42409 7.90929 6.50142 8.09596 6.57609 8.28796C6.65075 8.09062 6.72809 7.90129 6.80809 7.71995C6.88809 7.53329 6.97342 7.35462 7.06409 7.18395L10.4801 0.775954C10.5228 0.695954 10.5681 0.631955 10.6161 0.583955C10.6641 0.535954 10.7148 0.501288 10.7681 0.479955C10.8268 0.458621 10.8908 0.445288 10.9601 0.439955C11.0294 0.434621 11.1121 0.431954 11.2081 0.431954H12.8321Z" fill="black"/>
<path d="M29.5251 7.63196L28.1171 3.78395C28.0478 3.61329 27.9758 3.41062 27.9011 3.17595C27.8264 2.94129 27.7518 2.68795 27.6771 2.41595C27.6078 2.68795 27.5358 2.94395 27.4611 3.18396C27.3864 3.41862 27.3144 3.62395 27.2451 3.79995L25.8451 7.63196H29.5251ZM33.3251 12H31.6611C31.4744 12 31.3224 11.9546 31.2051 11.864C31.0878 11.768 30.9998 11.6506 30.9411 11.512L30.0771 9.15195H25.2851L24.4211 11.512C24.3784 11.6346 24.2958 11.7466 24.1731 11.848C24.0504 11.9493 23.8984 12 23.7171 12H22.0371L26.5891 0.431954H28.7811L33.3251 12Z" fill="black"/>
<path d="M52.2745 0.431954V12H51.1705C50.9998 12 50.8558 11.9733 50.7385 11.92C50.6265 11.8613 50.5171 11.7653 50.4105 11.632L44.3705 3.91996C44.4025 4.27195 44.4185 4.59729 44.4185 4.89595V12H42.5225V0.431954H43.6505C43.7411 0.431954 43.8185 0.437288 43.8825 0.447954C43.9518 0.453288 44.0105 0.469288 44.0585 0.495955C44.1118 0.517288 44.1625 0.551955 44.2105 0.599955C44.2585 0.642621 44.3118 0.701288 44.3705 0.775954L50.4345 8.51995C50.4185 8.33329 50.4051 8.14929 50.3945 7.96796C50.3838 7.78662 50.3785 7.61862 50.3785 7.46395V0.431954H52.2745Z" fill="black"/>
<path d="M65.0106 12H62.8506V0.431954H65.0106V12Z" fill="black"/>
<path d="M77.7606 2.14395V5.56796H82.0966V7.28795H77.7606V12H75.6006V0.431954H82.8966V2.14395H77.7606Z" fill="black"/>
<path d="M94.8231 2.14395V5.35195H98.8711V7.00796H94.8231V10.28H99.9591V12H92.6631V0.431954H99.9591V2.14395H94.8231Z" fill="black"/>
<path d="M116.026 2.53595C115.962 2.64795 115.893 2.73062 115.818 2.78395C115.749 2.83195 115.661 2.85596 115.554 2.85596C115.442 2.85596 115.32 2.81595 115.186 2.73595C115.058 2.65062 114.904 2.55729 114.722 2.45595C114.541 2.35462 114.328 2.26395 114.082 2.18395C113.842 2.09862 113.557 2.05595 113.226 2.05595C112.928 2.05595 112.666 2.09329 112.442 2.16795C112.218 2.23729 112.029 2.33595 111.874 2.46395C111.725 2.59195 111.613 2.74662 111.538 2.92795C111.464 3.10395 111.426 3.29862 111.426 3.51195C111.426 3.78395 111.501 4.01062 111.65 4.19195C111.805 4.37329 112.008 4.52796 112.258 4.65595C112.509 4.78395 112.794 4.89862 113.114 4.99995C113.434 5.10129 113.762 5.21062 114.098 5.32795C114.434 5.43995 114.762 5.57329 115.082 5.72795C115.402 5.87729 115.688 6.06929 115.938 6.30396C116.189 6.53329 116.389 6.81596 116.538 7.15196C116.693 7.48796 116.77 7.89596 116.77 8.37596C116.77 8.89862 116.68 9.38929 116.498 9.84795C116.322 10.3013 116.061 10.6986 115.714 11.04C115.373 11.376 114.954 11.6426 114.458 11.84C113.962 12.032 113.394 12.128 112.754 12.128C112.386 12.128 112.024 12.0906 111.666 12.016C111.309 11.9466 110.965 11.8453 110.634 11.712C110.309 11.5786 110.002 11.4186 109.714 11.232C109.426 11.0453 109.17 10.8373 108.946 10.608L109.578 9.57596C109.632 9.50129 109.701 9.43996 109.786 9.39196C109.872 9.33862 109.962 9.31195 110.058 9.31195C110.192 9.31195 110.336 9.36795 110.49 9.47995C110.645 9.58662 110.829 9.70662 111.042 9.83996C111.256 9.97329 111.504 10.096 111.786 10.208C112.074 10.3146 112.418 10.368 112.818 10.368C113.432 10.368 113.906 10.224 114.242 9.93596C114.578 9.64262 114.746 9.22395 114.746 8.67995C114.746 8.37595 114.669 8.12795 114.514 7.93596C114.365 7.74396 114.165 7.58395 113.914 7.45596C113.664 7.32262 113.378 7.21062 113.058 7.11996C112.738 7.02929 112.413 6.93062 112.082 6.82396C111.752 6.71729 111.426 6.58929 111.106 6.43995C110.786 6.29062 110.501 6.09595 110.25 5.85596C110 5.61595 109.797 5.31729 109.642 4.95995C109.493 4.59729 109.418 4.15195 109.418 3.62395C109.418 3.20262 109.501 2.79195 109.666 2.39195C109.837 1.99195 110.082 1.63729 110.402 1.32795C110.722 1.01862 111.117 0.770621 111.586 0.583955C112.056 0.397288 112.594 0.303955 113.202 0.303955C113.885 0.303955 114.514 0.410622 115.09 0.623955C115.666 0.837288 116.157 1.13595 116.562 1.51995L116.026 2.53595Z" fill="black"/>
<path d="M134.727 2.19995H131.239V12H129.087V2.19995H125.599V0.431954H134.727V2.19995Z" fill="black"/>
</svg>
